HIERARCHY
ROOT ui
{
	 OFFSET 0 0 0
	 CHANNELS 3 XPosition YPosition Z Position
	 EndSite
	 {
	 OFFSET 0 -1 0
	 }
}
ROOT li
{
	 OFFSET 0 0 0
	 CHANNELS 3 XPosition YPosition Z Position
	 EndSite
	 {
	 OFFSET 0 -1 0
	 }
}
ROOT ul
{
	 OFFSET 0 0 0
	 CHANNELS 3 XPosition YPosition Z Position
	 EndSite
	 {
	 OFFSET 0 -1 0
	 }
}
ROOT ll
{
	 OFFSET 0 0 0
	 CHANNELS 3 XPosition YPosition Z Position
	 EndSite
	 {
	 OFFSET 0 -1 0
	 }
}
ROOT tt
{
	 OFFSET 0 0 0
	 CHANNELS 3 XPosition YPosition Z Position
	 EndSite
	 {
	 OFFSET 0 -1 0
	 }
}
ROOT tb
{
	 OFFSET 0 0 0
	 CHANNELS 3 XPosition YPosition Z Position
	 EndSite
	 {
	 OFFSET 0 -1 0
	 }
}
ROOT td
{
	 OFFSET 0 0 0
	 CHANNELS 3 XPosition YPosition Z Position
	 EndSite
	 {
	 OFFSET 0 -1 0
	 }
}
ROOT v
{
	 OFFSET 0 0 0
	 CHANNELS 3 XPosition YPosition Z Position
	 EndSite
	 {
	 OFFSET 0 -1 0
	 }
}
ROOT bn
{
	 OFFSET 0 0 0
	 CHANNELS 3 XPosition YPosition Z Position
	 EndSite
	 {
	 OFFSET 0 -1 0
	 }
}
MOTION
Frames: 13
Frame Time: 0.002
-0.004170816898345947	1.89083993434906E-4	0		0.42370889282226565	-2.35724755859375	0		-1.2019388427734374	0.024098670959472657	0		-0.7569124145507813	-2.685671630859375	0		1.532643798828125	-0.6254384155273438	0		3.08284619140625	0.09589768218994141	0		4.525353515625	0.2949514465332031	0		5.5780849609375	0.2345066375732422	0		-0.4110268249511719	5.8487587890625	0		
-0.05023077392578125	0.0018717429637908935	0		0.42681021118164064	-2.3593349609375	0		-1.124051025390625	0.0216216983795166	0		-0.7218677978515625	-2.69339599609375	0		1.5246033935546874	-0.6262416381835938	0		3.064591796875	0.08640395355224609	0		4.52717724609375	0.29125946044921874	0		5.5786650390625	0.22311195373535156	0		-0.43792669677734375	5.83207568359375	0		
-0.049437789916992186	-0.0012228330373764038	0		0.4288157958984375	-2.36240283203125	0		-1.1941844482421875	0.02359686851501465	0		-0.75376171875	-2.69200927734375	0		1.5254365234375	-0.6301942138671875	0		3.058312255859375	0.0797056121826172	0		4.520994140625	0.29169195556640626	0		5.5742822265625	0.22400953674316407	0		-0.434610107421875	5.831896484375	0		
-0.04266847610473633	0.0015887750387191773	0		0.434790283203125	-2.359533447265625	0		-1.1904659423828126	0.023358526229858397	0		-0.7487748413085937	-2.69022607421875	0		1.5381614990234376	-0.6333431396484375	0		3.081252197265625	0.09352400207519532	0		4.527787109375	0.2979000244140625	0		5.58282373046875	0.25031993103027345	0		-0.41626715087890626	5.8394775390625	0		
-0.03910525512695313	0.0014572900533676148	0		0.4234857177734375	-2.363380859375	0		-1.1828399658203126	0.027066503524780273	0		-0.731104736328125	-2.697642578125	0		1.5448419189453124	-0.6293931884765624	0		3.065582763671875	0.07996183776855469	0		4.545421875	0.30391802978515625	0		5.5917900390625	0.25063104248046875	0		-0.42734762573242185	5.82954443359375	0		
-0.032675891876220706	0.004285315990447998	0		0.46909426879882815	-2.361148193359375	0		-1.1095509033203126	0.020721729278564454	0		-0.7413980102539063	-2.690593994140625	0		1.548272216796875	-0.6293927612304687	0		3.09306787109375	0.08669133758544922	0		4.5446826171875	0.2982178955078125	0		5.5942080078125	0.2511656036376953	0		-0.424420654296875	5.82939111328125	0		
-0.032540077209472655	0.0012205009460449219	0		0.44546966552734374	-2.359790283203125	0		-1.1803426513671875	0.022722400665283204	0		-0.7030711669921875	-2.69432275390625	0		1.5453900146484374	-0.6362937622070313	0		3.090214111328125	0.08490201568603516	0		4.54784521484375	0.2984371337890625	0		5.596484375	0.25166600036621095	0		-0.4226280517578125	5.8312646484375	0		
0.017369253158569336	-0.0036376500129699707	0		0.5073275146484375	-2.37780712890625	0		-1.1033900146484374	0.020353349685668945	0		-0.7029741821289063	-2.69842333984375	0		1.5484124755859374	-0.6362919921875	0		3.07022314453125	0.08737652587890625	0		4.54080615234375	0.29880126953125	0		5.59636083984375	0.23491575622558594	0		-0.42004043579101563	5.83113427734375	0		
-0.051783882141113284	0.0014210070371627808	0		0.4344333190917969	-2.3656552734375	0		-1.1745924072265626	0.022375205993652343	0		-0.7220953369140625	-2.70220751953125	0		1.5512252197265626	-0.6362894897460938	0		3.077878662109375	0.08039389038085938	0		4.5484326171875	0.29090951538085935	0		5.60544189453125	0.22987710571289063	0		-0.4156750183105469	5.82798388671875	0		
0.0288072509765625	0.0020913519859313964	0		0.46511627197265626	-2.367160400390625	0		-1.1510748291015624	0.018891080856323243	0		-0.7142789916992187	-2.696412353515625	0		1.56300439453125	-0.6254307250976563	0		3.09772802734375	0.09821025085449218	0		4.55020849609375	0.305095947265625	0		5.6060234375	0.2562718811035156	0		-0.3841348571777344	5.846412109375	0		
-0.01880092430114746	0.0038121840953826906	0		0.4676069641113281	-2.36721142578125	0		-1.08757080078125	0.026787874221801757	0		-0.6808865356445313	-2.704014892578125	0		1.55927978515625	-0.6333291625976563	0		3.08280908203125	0.08056618499755859	0		4.558466796875	0.2991593017578125	0		5.60897412109375	0.23062942504882813	0		-0.3981888122558594	5.83857275390625	0		
0.030305606842041016	-9.981160163879395E-4	0		0.4569568786621094	-2.363050048828125	0		-1.1674808349609376	0.021971267700195314	0		-0.7254218139648437	-2.693368896484375	0		1.5584378662109375	-0.636275146484375	0		3.0800927734375	0.08772075653076172	0		4.5506298828125	0.29946188354492187	0		5.60339794921875	0.2312301330566406	0		-0.41140655517578123	5.8307275390625	0		
-0.017685344696044922	7.349339723587037E-4	0		0.459041259765625	-2.363089111328125	0		-1.091519775390625	0.01969681167602539	0		-0.6584898681640625	-2.70448193359375	0		1.55738818359375	-0.6402208251953125	0		3.086965087890625	0.08071187591552734	0		4.5595087890625	0.2934819030761719	0		5.61195068359375	0.23125064086914063	0		-0.40869161987304686	5.82863720703125	0		
